<svg xmlns="http://www.w3.org/2000/svg" width="59.487" height="60.068" viewBox="0 0 59.487 60.068">
  <path id="_012-shopping_cart" data-name="012-shopping cart" d="M58.065,11.4A5.838,5.838,0,0,0,53.6,9.425H10.841L10.41,6.2C9.947,2.723,7.527,0,4.9,0H1.76a1.76,1.76,0,0,0,0,3.52H4.9c.565,0,1.76,1.194,2.02,3.144l5.037,37.781a7.116,7.116,0,0,0,2.409,4.39,7.272,7.272,0,0,0,3.378,1.681,6.473,6.473,0,1,0,11.447.127h9.222a6.472,6.472,0,1,0,11.513,0h4.611a1.76,1.76,0,1,0,0-3.52h-35.5a3.777,3.777,0,0,1-3.591-3.144l-.368-2.761H49.826a7.306,7.306,0,0,0,7.08-6.2l2.524-18.932A5.838,5.838,0,0,0,58.065,11.4ZM26.389,53.6a2.953,2.953,0,1,1-2.953-2.952A2.956,2.956,0,0,1,26.389,53.6Zm20.734,0a2.953,2.953,0,1,1-2.953-2.952A2.956,2.956,0,0,1,47.124,53.6Zm8.293-39.879a2.365,2.365,0,0,1,.524,1.907l-1.058,7.939H42.908l.708-10.617H53.6A2.367,2.367,0,0,1,55.417,13.716ZM30.425,37.7l-.708-10.617h9.429L38.438,37.7Zm-.943-14.137-.708-10.617H40.088l-.708,10.617ZM25.248,12.944l.708,10.617H12.725L11.309,12.944ZM13.194,27.081h13L26.9,37.7H14.61ZM49.826,37.7h-7.86l.708-10.617H54.413l-1,7.474A3.777,3.777,0,0,1,49.826,37.7Zm0,0" fill="#666"/>
</svg>
