<svg id="_002-clock" data-name="002-clock" xmlns="http://www.w3.org/2000/svg" width="37.95" height="37.95" viewBox="0 0 37.95 37.95">
  <g id="Grupo_58" data-name="Grupo 58" transform="translate(0 0)">
    <g id="Grupo_57" data-name="Grupo 57">
      <path id="Trazado_71" data-name="Trazado 71" d="M32.392,5.558A18.975,18.975,0,0,0,5.558,32.392,18.975,18.975,0,0,0,32.392,5.558ZM18.975,35.7A16.729,16.729,0,1,1,35.7,18.975,16.748,16.748,0,0,1,18.975,35.7Z" transform="translate(0 0)" fill="#ffa150"/>
    </g>
  </g>
  <g id="Grupo_60" data-name="Grupo 60" transform="translate(3.724 3.724)">
    <g id="Grupo_59" data-name="Grupo 59">
      <path id="Trazado_72" data-name="Trazado 72" d="M65.5,50.248l-.124,0-.031,0-.052,0A15.267,15.267,0,0,0,50.248,65.43c0,.006,0,.011,0,.017s0,.007,0,.01,0,.027,0,.041A15.251,15.251,0,1,0,65.5,50.248ZM66.62,78.454V77.031a1.123,1.123,0,0,0-2.246,0v1.423A13.026,13.026,0,0,1,52.537,66.57h1.221a1.123,1.123,0,1,0,0-2.246H52.546A13.027,13.027,0,0,1,64.22,52.556v1.151a1.123,1.123,0,1,0,2.246,0V52.53a13.027,13.027,0,0,1,11.97,11.64H77.082a1.123,1.123,0,1,0,0,2.246H78.47A13.025,13.025,0,0,1,66.62,78.454Z" transform="translate(-50.247 -50.248)" fill="#ffa150"/>
    </g>
  </g>
  <g id="Grupo_62" data-name="Grupo 62" transform="translate(11.323 11.323)">
    <g id="Grupo_61" data-name="Grupo 61">
      <path id="Trazado_73" data-name="Trazado 73" d="M164.955,155.866a1.122,1.122,0,0,0-1.588,0l-2.957,2.957-5.736-5.736a1.123,1.123,0,1,0-1.588,1.588l6.53,6.53a1.123,1.123,0,0,0,1.588,0l3.751-3.751A1.123,1.123,0,0,0,164.955,155.866Z" transform="translate(-152.758 -152.759)" fill="#ffa150"/>
    </g>
  </g>
</svg>
