<svg xmlns="http://www.w3.org/2000/svg" width="42.787" height="29.663" viewBox="0 0 42.787 29.663">
  <g id="_003-delivery" data-name="003-delivery" transform="translate(0 -78.521)">
    <g id="Grupo_64" data-name="Grupo 64" transform="translate(26.922 97.398)">
      <g id="Grupo_63" data-name="Grupo 63">
        <path id="Trazado_78" data-name="Trazado 78" d="M327.544,304.4a5.393,5.393,0,1,0,5.393,5.393A5.4,5.4,0,0,0,327.544,304.4Zm0,8.09a2.7,2.7,0,1,1,2.7-2.7A2.7,2.7,0,0,1,327.544,312.493Z" transform="translate(-322.151 -304.403)" fill="#ffa150"/>
      </g>
    </g>
    <g id="Grupo_66" data-name="Grupo 66" transform="translate(8.494 97.398)">
      <g id="Grupo_65" data-name="Grupo 65">
        <path id="Trazado_79" data-name="Trazado 79" d="M107.04,304.4a5.393,5.393,0,1,0,5.393,5.393A5.4,5.4,0,0,0,107.04,304.4Zm0,8.09a2.7,2.7,0,1,1,2.7-2.7A2.7,2.7,0,0,1,107.04,312.493Z" transform="translate(-101.647 -304.403)" fill="#ffa150"/>
      </g>
    </g>
    <g id="Grupo_68" data-name="Grupo 68" transform="translate(27.641 81.218)">
      <g id="Grupo_67" data-name="Grupo 67">
        <path id="Trazado_80" data-name="Trazado 80" d="M339.062,111.533a1.349,1.349,0,0,0-1.2-.743h-7.1v2.7h6.27l3.671,7.3,2.41-1.212Z" transform="translate(-330.756 -110.79)" fill="#ffa150"/>
      </g>
    </g>
    <g id="Grupo_70" data-name="Grupo 70" transform="translate(18.068 101.488)">
      <g id="Grupo_69" data-name="Grupo 69">
        <rect id="Rectángulo_102" data-name="Rectángulo 102" width="10.202" height="2.697" fill="#ffa150"/>
      </g>
    </g>
    <g id="Grupo_72" data-name="Grupo 72" transform="translate(3.82 101.488)">
      <g id="Grupo_71" data-name="Grupo 71">
        <path id="Trazado_81" data-name="Trazado 81" d="M51.737,353.345H47.063a1.348,1.348,0,1,0,0,2.7h4.674a1.348,1.348,0,1,0,0-2.7Z" transform="translate(-45.715 -353.345)" fill="#ffa150"/>
      </g>
    </g>
    <g id="Grupo_74" data-name="Grupo 74" transform="translate(3.82 78.521)">
      <g id="Grupo_73" data-name="Grupo 73">
        <path id="Trazado_82" data-name="Trazado 82" d="M84.4,93.245l-2.652-3.416a1.346,1.346,0,0,0-1.065-.521h-9.8V79.869a1.348,1.348,0,0,0-1.348-1.348H47.063a1.348,1.348,0,1,0,0,2.7H68.187v9.438A1.348,1.348,0,0,0,69.535,92H80.021l1.964,2.529v6.954h-3.73a1.348,1.348,0,1,0,0,2.7h5.079a1.348,1.348,0,0,0,1.348-1.348V94.072A1.35,1.35,0,0,0,84.4,93.245Z" transform="translate(-45.715 -78.521)" fill="#ffa150"/>
      </g>
    </g>
    <g id="Grupo_76" data-name="Grupo 76" transform="translate(2.202 94.656)">
      <g id="Grupo_75" data-name="Grupo 75">
        <path id="Trazado_83" data-name="Trazado 83" d="M33.9,271.6H27.7a1.348,1.348,0,0,0,0,2.7h6.2a1.348,1.348,0,0,0,0-2.7Z" transform="translate(-26.353 -271.597)" fill="#ffa150"/>
      </g>
    </g>
    <g id="Grupo_78" data-name="Grupo 78" transform="translate(0 89.353)">
      <g id="Grupo_77" data-name="Grupo 77">
        <path id="Trazado_84" data-name="Trazado 84" d="M12.854,208.134H1.348a1.348,1.348,0,0,0,0,2.7H12.854a1.348,1.348,0,0,0,0-2.7Z" transform="translate(0 -208.134)" fill="#ffa150"/>
      </g>
    </g>
    <g id="Grupo_80" data-name="Grupo 80" transform="translate(2.202 84.049)">
      <g id="Grupo_79" data-name="Grupo 79">
        <path id="Trazado_85" data-name="Trazado 85" d="M39.207,144.672H27.7a1.348,1.348,0,0,0,0,2.7H39.207a1.348,1.348,0,1,0,0-2.7Z" transform="translate(-26.353 -144.672)" fill="#ffa150"/>
      </g>
    </g>
  </g>
</svg>
