<svg xmlns="http://www.w3.org/2000/svg" width="39" height="27.422" viewBox="0 0 39 27.422">
  <g id="gift-card" transform="translate(0 -76)">
    <g id="Grupo_82" data-name="Grupo 82" transform="translate(0 76)">
      <g id="Grupo_81" data-name="Grupo 81">
        <path id="Trazado_87" data-name="Trazado 87" d="M35.572,76H3.428A3.432,3.432,0,0,0,0,79.428V99.994a3.432,3.432,0,0,0,3.428,3.428H35.572A3.432,3.432,0,0,0,39,99.994V79.428A3.432,3.432,0,0,0,35.572,76ZM11.426,101.137h-8a1.144,1.144,0,0,1-1.143-1.143V87.426H4.757a3.587,3.587,0,0,0,4.089,2.38l-1.8,2.7a1.143,1.143,0,1,0,1.9,1.267l2.477-3.716ZM6.855,86.282A1.3,1.3,0,0,1,8.88,85.2l1.628,1.085L8.88,87.369A1.3,1.3,0,0,1,6.855,86.282Zm4.57-2.133L10.148,83.3a3.588,3.588,0,0,0-5.39,1.844H2.285V79.428a1.144,1.144,0,0,1,1.143-1.143h8ZM36.715,99.994a1.144,1.144,0,0,1-1.143,1.142H13.711V90.057l2.477,3.716a1.143,1.143,0,0,0,1.9-1.268l-1.8-2.7a3.586,3.586,0,0,0,4.089-2.38H36.715ZM14.628,86.283,16.256,85.2a1.3,1.3,0,1,1,0,2.171Zm22.087-1.143H20.379A3.588,3.588,0,0,0,14.989,83.3l-1.278.852V78.285H35.572a1.144,1.144,0,0,1,1.143,1.143Z" transform="translate(0 -76)" fill="#ffa150"/>
      </g>
    </g>
    <g id="Grupo_84" data-name="Grupo 84" transform="translate(22.852 91.996)">
      <g id="Grupo_83" data-name="Grupo 83">
        <path id="Trazado_88" data-name="Trazado 88" d="M310.436,286h-9.293a1.143,1.143,0,0,0,0,2.285h9.293a1.143,1.143,0,0,0,0-2.285Z" transform="translate(-300 -286)" fill="#ffa150"/>
      </g>
    </g>
    <g id="Grupo_86" data-name="Grupo 86" transform="translate(22.852 96.566)">
      <g id="Grupo_85" data-name="Grupo 85">
        <path id="Trazado_89" data-name="Trazado 89" d="M310.436,346h-9.293a1.143,1.143,0,0,0,0,2.285h9.293a1.143,1.143,0,0,0,0-2.285Z" transform="translate(-300 -346)" fill="#ffa150"/>
      </g>
    </g>
  </g>
</svg>
