<svg xmlns="http://www.w3.org/2000/svg" width="64" height="56.25" viewBox="0 0 64 56.25">
  <g id="_001-phone" data-name="001-phone" transform="translate(0 -31)">
    <ellipse id="Elipse_17" data-name="Elipse 17" cx="1.984" cy="1.488" rx="1.984" ry="1.488" transform="translate(34.247 42.686)" fill="#666"/>
    <ellipse id="Elipse_18" data-name="Elipse 18" cx="2.479" cy="1.488" rx="2.479" ry="1.488" transform="translate(40.198 42.686)" fill="#666"/>
    <ellipse id="Elipse_19" data-name="Elipse 19" cx="1.984" cy="1.488" rx="1.984" ry="1.488" transform="translate(48.132 42.686)" fill="#666"/>
    <path id="Trazado_152" data-name="Trazado 152" d="M42.152,147.625A5.618,5.618,0,0,0,47.75,142v-7.5a1.875,1.875,0,0,0-1.281-1.778l-11.223-3.75a1.875,1.875,0,0,0-1.634.218l-4.773,3.182c-5.122-2.431-11.176-8.431-13.584-13.462l3.181-4.771a1.875,1.875,0,0,0,.218-1.634L14.9,101.281A1.875,1.875,0,0,0,13.125,100h-7.5A5.618,5.618,0,0,0,0,105.6c0,10.36,4.711,20.992,12.924,29.171s18.858,12.856,29.228,12.856ZM5.625,103.75h6.15l3.031,9.072-3.241,4.861a1.875,1.875,0,0,0-.181,1.736,31.016,31.016,0,0,0,7.026,9.872,31.793,31.793,0,0,0,9.92,6.949,1.875,1.875,0,0,0,1.736-.181l4.861-3.241L44,135.85V142a1.842,1.842,0,0,1-1.848,1.875c-19.739,0-38.4-18.6-38.4-38.277A1.842,1.842,0,0,1,5.625,103.75Z" transform="translate(0 -60.375)" fill="#666"/>
    <path id="Trazado_153" data-name="Trazado 153" d="M193.407,64.607a1.875,1.875,0,0,0,2.043-.406L202.4,57.25h6.723a13.126,13.126,0,1,0,0-26.25h-15a13.126,13.126,0,0,0-1.875,26.117v5.759A1.875,1.875,0,0,0,193.407,64.607ZM184.75,44.125a9.386,9.386,0,0,1,9.375-9.375h15a9.376,9.376,0,1,1,0,18.75h-7.5a1.874,1.874,0,0,0-1.326.549l-4.3,4.3V55.375a1.875,1.875,0,0,0-1.875-1.875A9.386,9.386,0,0,1,184.75,44.125Z" transform="translate(-158.375)" fill="#666"/>
  </g>
</svg>
