<svg xmlns="http://www.w3.org/2000/svg" width="56.556" height="56.445" viewBox="0 0 56.556 56.445">
  <g id="_002-check-list" data-name="002-check-list" transform="translate(0 -0.5)">
    <g id="Grupo_131" data-name="Grupo 131" transform="translate(6.628 23.696)">
      <g id="Grupo_130" data-name="Grupo 130">
        <path id="Trazado_154" data-name="Trazado 154" d="M69.026,210.672a1.657,1.657,0,0,0-2.223.741l-2.286,4.572L62.829,214.3a1.657,1.657,0,1,0-2.343,2.343l3.314,3.314a1.657,1.657,0,0,0,2.653-.431l3.314-6.628A1.657,1.657,0,0,0,69.026,210.672Z" transform="translate(-60 -210.497)" fill="#666"/>
      </g>
    </g>
    <g id="Grupo_133" data-name="Grupo 133" transform="translate(6.628 36.952)">
      <g id="Grupo_132" data-name="Grupo 132">
        <path id="Trazado_155" data-name="Trazado 155" d="M69.026,330.672a1.657,1.657,0,0,0-2.223.741l-2.286,4.572L62.829,334.3a1.657,1.657,0,0,0-2.343,2.343l3.314,3.314a1.657,1.657,0,0,0,2.653-.431l3.314-6.628A1.657,1.657,0,0,0,69.026,330.672Z" transform="translate(-60 -330.497)" fill="#666"/>
      </g>
    </g>
    <g id="Grupo_135" data-name="Grupo 135" transform="translate(23.197 23.697)">
      <g id="Grupo_134" data-name="Grupo 134">
        <path id="Trazado_156" data-name="Trazado 156" d="M221.6,210.5h-9.941a1.657,1.657,0,1,0,0,3.314H221.6a1.657,1.657,0,1,0,0-3.314Z" transform="translate(-210 -210.5)" fill="#666"/>
      </g>
    </g>
    <g id="Grupo_137" data-name="Grupo 137" transform="translate(19.883 30.324)">
      <g id="Grupo_136" data-name="Grupo 136">
        <path id="Trazado_157" data-name="Trazado 157" d="M194.912,270.5H181.657a1.657,1.657,0,1,0,0,3.314h13.255a1.657,1.657,0,1,0,0-3.314Z" transform="translate(-180 -270.5)" fill="#666"/>
      </g>
    </g>
    <g id="Grupo_139" data-name="Grupo 139" transform="translate(23.197 36.952)">
      <g id="Grupo_138" data-name="Grupo 138">
        <path id="Trazado_158" data-name="Trazado 158" d="M221.6,330.5h-9.941a1.657,1.657,0,1,0,0,3.314H221.6a1.657,1.657,0,1,0,0-3.314Z" transform="translate(-210 -330.5)" fill="#666"/>
      </g>
    </g>
    <g id="Grupo_141" data-name="Grupo 141" transform="translate(19.883 43.58)">
      <g id="Grupo_140" data-name="Grupo 140">
        <path id="Trazado_159" data-name="Trazado 159" d="M194.912,390.5H181.657a1.657,1.657,0,1,0,0,3.314h13.255a1.657,1.657,0,1,0,0-3.314Z" transform="translate(-180 -390.5)" fill="#666"/>
      </g>
    </g>
    <g id="Grupo_143" data-name="Grupo 143" transform="translate(0 0.5)">
      <g id="Grupo_142" data-name="Grupo 142">
        <path id="Trazado_160" data-name="Trazado 160" d="M38.109,10.441H36.167a4.979,4.979,0,0,0-4.686-3.314H29.658a8.286,8.286,0,0,0-16.236,0H11.6a4.979,4.979,0,0,0-4.686,3.314H4.971A4.976,4.976,0,0,0,0,15.412V51.974a4.976,4.976,0,0,0,4.971,4.971H38.109a4.976,4.976,0,0,0,4.971-4.971V15.412A4.976,4.976,0,0,0,38.109,10.441ZM9.941,12.1A1.659,1.659,0,0,1,11.6,10.441h3.314a1.657,1.657,0,0,0,1.657-1.657,4.971,4.971,0,1,1,9.941,0,1.657,1.657,0,0,0,1.657,1.657h3.314A1.659,1.659,0,0,1,33.138,12.1v1.657H9.941ZM39.766,51.974a1.659,1.659,0,0,1-1.657,1.657H4.971a1.659,1.659,0,0,1-1.657-1.657V15.412a1.659,1.659,0,0,1,1.657-1.657H6.628v1.657a1.657,1.657,0,0,0,1.657,1.657h26.51a1.657,1.657,0,0,0,1.657-1.657V13.755h1.657a1.659,1.659,0,0,1,1.657,1.657Z" transform="translate(0 -0.5)" fill="#666"/>
      </g>
    </g>
    <g id="Grupo_145" data-name="Grupo 145" transform="translate(46.614 10.443)">
      <g id="Grupo_144" data-name="Grupo 144">
        <path id="Trazado_161" data-name="Trazado 161" d="M431.766,98.058l-3.314-6.628a1.658,1.658,0,0,0-2.964,0l-3.314,6.628A1.656,1.656,0,0,0,422,98.8v33.249a4.971,4.971,0,1,0,9.941,0V98.8A1.656,1.656,0,0,0,431.766,98.058Zm-3.139,33.99a1.657,1.657,0,1,1-3.314,0v-5.081h3.314Zm0-8.395h-3.314V99.19l1.657-3.314,1.657,3.314Z" transform="translate(-422 -90.516)" fill="#666"/>
      </g>
    </g>
    <g id="Grupo_147" data-name="Grupo 147" transform="translate(20.325 7.428)">
      <g id="Grupo_146" data-name="Grupo 146" transform="translate(0 0)">
        <circle id="Elipse_20" data-name="Elipse 20" cx="2" cy="2" r="2" transform="translate(-0.325 -0.088)" fill="#666"/>
      </g>
    </g>
  </g>
</svg>
