<svg xmlns="http://www.w3.org/2000/svg" width="41.654" height="41.654" viewBox="0 0 41.654 41.654">
  <g id="_001-package" data-name="001-package" transform="translate(0)">
    <path id="Trazado_74" data-name="Trazado 74" d="M66.1,290H61.22a1.22,1.22,0,1,0,0,2.441H66.1a1.22,1.22,0,1,0,0-2.441Z" transform="translate(-55.119 -266.407)" fill="#ffa150"/>
    <path id="Trazado_75" data-name="Trazado 75" d="M66.1,230H61.22a1.22,1.22,0,0,0,0,2.441H66.1a1.22,1.22,0,0,0,0-2.441Z" transform="translate(-55.119 -211.288)" fill="#ffa150"/>
    <path id="Trazado_76" data-name="Trazado 76" d="M346.834,324.073l-3.739,3.739-1.438-1.438a1.22,1.22,0,0,0-1.726,1.726l2.3,2.3a1.22,1.22,0,0,0,1.726,0l4.6-4.6a1.22,1.22,0,1,0-1.726-1.726Z" transform="translate(-311.947 -297.379)" fill="#ffa150"/>
    <path id="Trazado_77" data-name="Trazado 77" d="M40.434,21.315a4.023,4.023,0,0,1-3.618-2.236l-.172-.344a1.22,1.22,0,0,0-1.092-.675h-.569V7.729a1.221,1.221,0,0,0-.129-.546L31.6.675A1.22,1.22,0,0,0,30.509,0H4.475A1.22,1.22,0,0,0,3.383.675L.129,7.183A1.221,1.221,0,0,0,0,7.729V28.881A1.22,1.22,0,0,0,1.22,30.1H22.957a12.636,12.636,0,0,0,8.991,11.5,1.219,1.219,0,0,0,.7,0,12.636,12.636,0,0,0,9.005-12.1V22.536A1.22,1.22,0,0,0,40.434,21.315ZM31.788,6.508H21.153V2.441h8.6ZM16.271,8.949h2.441v5.695H16.271Zm2.441-6.508V6.508H16.271V2.441Zm-13.483,0h8.6V6.508H3.195ZM22.942,22.536v5.125H2.441V8.949h11.39v6.915a1.22,1.22,0,0,0,1.22,1.22h4.881a1.22,1.22,0,0,0,1.22-1.22V8.949h11.39v9.112h-3.5a1.22,1.22,0,0,0-1.092.675l-.172.343a4.023,4.023,0,0,1-3.618,2.236A1.22,1.22,0,0,0,22.942,22.536ZM39.214,29.5A10.129,10.129,0,0,1,32.3,39.153,10.129,10.129,0,0,1,25.383,29.5V23.642a6.439,6.439,0,0,0,4.4-3.141H34.81a6.439,6.439,0,0,0,4.4,3.141Z" fill="#ffa150"/>
  </g>
</svg>
