<svg xmlns="http://www.w3.org/2000/svg" width="17.304" height="17.304" viewBox="0 0 17.304 17.304">
  <path id="whatsapp" d="M14.712,34.515a8.578,8.578,0,0,0-13.5,10.348L0,49.3l4.546-1.194a8.549,8.549,0,0,0,4.1,1.043h0a8.52,8.52,0,0,0,6.064-14.639ZM8.648,47.709a7.114,7.114,0,0,1-3.631-.993l-.259-.154-2.7.707.718-2.63-.17-.27a7.141,7.141,0,1,1,13.245-3.789A7.207,7.207,0,0,1,8.648,47.709Zm3.909-5.338c-.212-.108-1.267-.626-1.464-.7s-.34-.108-.483.108-.552.7-.68.842-.251.162-.464.054a5.832,5.832,0,0,1-2.916-2.549c-.22-.379.22-.351.63-1.17a.4.4,0,0,0-.019-.375c-.054-.108-.483-1.163-.66-1.591s-.351-.359-.483-.367-.267-.008-.409-.008a.794.794,0,0,0-.572.267,2.408,2.408,0,0,0-.749,1.788,4.2,4.2,0,0,0,.873,2.217,9.574,9.574,0,0,0,3.662,3.237,4.193,4.193,0,0,0,2.572.537,2.195,2.195,0,0,0,1.445-1.02,1.792,1.792,0,0,0,.124-1.02C12.912,42.529,12.77,42.475,12.557,42.371Z" transform="translate(0 -32)" fill="#666"/>
</svg>
