<svg xmlns="http://www.w3.org/2000/svg" width="37.758" height="37.758" viewBox="0 0 37.758 37.758">
  <g id="XMLID_1497_" transform="translate(0 0)">
    <g id="XMLID_1687_" transform="translate(0 0)">
      <path id="XMLID_898_" d="M20.538,37.758H17.22a2.213,2.213,0,0,1-.553-4.355v-.918a.444.444,0,0,0-.363-.432,13.289,13.289,0,0,1-4.916-2.036.447.447,0,0,0-.565.048l-.655.655A2.208,2.208,0,0,1,6.7,33.4L4.356,31.056a2.213,2.213,0,0,1,2.689-3.471l.649-.649a.447.447,0,0,0,.048-.565,13.29,13.29,0,0,1-2.036-4.916.444.444,0,0,0-.432-.363H4.356A2.216,2.216,0,0,1,2.132,22.75,2.222,2.222,0,0,1,0,20.5V17.22a2.212,2.212,0,0,1,2.288-2.211,2.24,2.24,0,0,1,2.058,1.658h.927a.444.444,0,0,0,.432-.363,13.289,13.289,0,0,1,2.036-4.916.447.447,0,0,0-.048-.565l-.649-.649A2.213,2.213,0,0,1,4.356,6.7L6.7,4.356a2.213,2.213,0,0,1,3.471,2.689l.649.649a.447.447,0,0,0,.565.048A13.29,13.29,0,0,1,16.3,5.705a.444.444,0,0,0,.363-.432V4.355A2.213,2.213,0,0,1,17.22,0h3.319a2.213,2.213,0,0,1,.553,4.355v.918a.444.444,0,0,0,.363.432,13.289,13.289,0,0,1,4.916,2.036.447.447,0,0,0,.565-.048l.649-.649a2.213,2.213,0,0,1,3.47-2.688L33.4,6.7a2.213,2.213,0,0,1-2.689,3.471l-.649.649a.447.447,0,0,0-.048.565A13.29,13.29,0,0,1,32.053,16.3a.444.444,0,0,0,.432.363h.926a2.233,2.233,0,0,1,1.936-1.651h0a2.213,2.213,0,0,1,2.411,2.2v3.319a2.208,2.208,0,0,1-4.347.553h-.926a.444.444,0,0,0-.432.363,13.289,13.289,0,0,1-2.036,4.916.447.447,0,0,0,.048.565l.649.649A2.213,2.213,0,0,1,33.4,31.056L31.055,33.4a2.208,2.208,0,0,1-3.465-2.683l-.655-.655a.447.447,0,0,0-.565-.048,13.29,13.29,0,0,1-4.916,2.036.444.444,0,0,0-.363.432V33.4a2.213,2.213,0,0,1-.553,4.355Zm-9.406-9.294a1.928,1.928,0,0,1,1.079.33,11.822,11.822,0,0,0,4.374,1.812,1.922,1.922,0,0,1,1.556,1.88v1.4a.923.923,0,0,1-.922.922.737.737,0,0,0,0,1.475h3.319a.737.737,0,1,0,0-1.475.923.923,0,0,1-.922-.922v-1.4a1.922,1.922,0,0,1,1.556-1.88,11.824,11.824,0,0,0,4.374-1.812,1.924,1.924,0,0,1,2.432.228l1.014,1.014a.89.89,0,0,1,0,1.256.76.76,0,0,0-.07,1.015.738.738,0,0,0,1.09.051l2.347-2.347a.737.737,0,0,0-1.043-1.043l-.024.024a.889.889,0,0,1-1.256,0l-1.014-1.014a1.924,1.924,0,0,1-.228-2.432,11.823,11.823,0,0,0,1.812-4.374,1.922,1.922,0,0,1,1.88-1.556H33.92a.89.89,0,0,1,.889.889.759.759,0,0,0,.668.768.738.738,0,0,0,.807-.734V17.22a.738.738,0,0,0-.807-.734.759.759,0,0,0-.668.768.89.89,0,0,1-.889.889H32.486a1.922,1.922,0,0,1-1.88-1.556,11.824,11.824,0,0,0-1.812-4.374,1.924,1.924,0,0,1,.228-2.432l.991-.991a.923.923,0,0,1,1.3,0,.737.737,0,1,0,1.043-1.043L30.013,5.4A.737.737,0,0,0,28.97,6.442a.923.923,0,0,1,0,1.3l-.991.991a1.925,1.925,0,0,1-2.432.228,11.822,11.822,0,0,0-4.374-1.812,1.922,1.922,0,0,1-1.556-1.88v-1.4a.923.923,0,0,1,.922-.922.737.737,0,0,0,0-1.475H17.22a.737.737,0,0,0,0,1.475.923.923,0,0,1,.922.922v1.4a1.922,1.922,0,0,1-1.556,1.88,11.824,11.824,0,0,0-4.374,1.812,1.924,1.924,0,0,1-2.432-.228l-.991-.991a.922.922,0,0,1,0-1.3A.738.738,0,0,0,7.746,5.4L5.4,7.746A.737.737,0,0,0,6.442,8.789a.923.923,0,0,1,1.3,0l.991.991a1.924,1.924,0,0,1,.228,2.432,11.823,11.823,0,0,0-1.812,4.374,1.922,1.922,0,0,1-1.88,1.556H3.833a.884.884,0,0,1-.883-.883.764.764,0,0,0-.711-.776.738.738,0,0,0-.763.737V20.5a.762.762,0,0,0,.71.772.738.738,0,0,0,.765-.737.923.923,0,0,1,.922-.922h1.4a1.922,1.922,0,0,1,1.88,1.556,11.824,11.824,0,0,0,1.812,4.374,1.924,1.924,0,0,1-.228,2.432L7.722,28.993a.889.889,0,0,1-1.256,0l-.024-.024A.737.737,0,0,0,5.4,30.013l2.347,2.347a.738.738,0,0,0,1.09-.051.759.759,0,0,0-.07-1.015.889.889,0,0,1,0-1.256L9.78,29.022a1.91,1.91,0,0,1,1.353-.558Z" transform="translate(0 0)" fill="#ffa150"/>
    </g>
    <g id="XMLID_1654_" transform="translate(12.933 9.578)">
      <path id="XMLID_895_" d="M178.471,136.073a3.1,3.1,0,1,1,3.1-3.1A3.1,3.1,0,0,1,178.471,136.073Zm0-4.72a1.622,1.622,0,1,0,1.622,1.622A1.624,1.624,0,0,0,178.471,131.353Z" transform="translate(-175.374 -129.878)" fill="#ffa150"/>
    </g>
    <g id="XMLID_1656_" transform="translate(11.259 20.881)">
      <path id="XMLID_892_" d="M155.346,288.5a2.679,2.679,0,1,1,2.679-2.679A2.682,2.682,0,0,1,155.346,288.5Zm0-3.884a1.2,1.2,0,1,0,1.2,1.2A1.206,1.206,0,0,0,155.346,284.613Z" transform="translate(-152.667 -283.138)" fill="#ffa150"/>
    </g>
    <g id="XMLID_1104_" transform="translate(19.501 16.42)">
      <path id="XMLID_891_" d="M268.954,231.738a4.552,4.552,0,0,1-4.523-4.022.737.737,0,1,1,1.465-.171,3.08,3.08,0,1,0,3.4-3.423.737.737,0,1,1,.162-1.466,4.555,4.555,0,0,1-.5,9.081Z" transform="translate(-264.426 -222.653)" fill="#ffa150"/>
    </g>
    <g id="XMLID_1101_" transform="translate(22.345 11.938)">
      <path id="XMLID_890_" d="M303.737,163.355a.738.738,0,1,1,.521-.216A.743.743,0,0,1,303.737,163.355Z" transform="translate(-303 -161.88)" fill="#ffa150"/>
    </g>
    <g id="XMLID_1094_" transform="translate(18.142 26.918)">
      <path id="XMLID_889_" d="M246.737,366.475a.738.738,0,1,1,.521-.216A.743.743,0,0,1,246.737,366.475Z" transform="translate(-246 -365)" fill="#ffa150"/>
    </g>
    <g id="XMLID_1660_" transform="translate(9.858 18.151)">
      <path id="XMLID_888_" d="M134.407,247.6a.738.738,0,1,1,.521-.216A.742.742,0,0,1,134.407,247.6Z" transform="translate(-133.67 -246.13)" fill="#ffa150"/>
    </g>
    <g id="XMLID_1493_" transform="translate(20.584 17.524)">
      <path id="XMLID_887_" d="M279.857,239.095a.738.738,0,1,1,.521-.216A.743.743,0,0,1,279.857,239.095Z" transform="translate(-279.12 -237.62)" fill="#ffa150"/>
    </g>
  </g>
</svg>
