<svg xmlns="http://www.w3.org/2000/svg" width="67.005" height="60.462" viewBox="0 0 67.005 60.462">
  <g id="_001-headphone" data-name="001-headphone" transform="translate(0 -25)">
    <path id="Trazado_86" data-name="Trazado 86" d="M67,58.372c0-5.452-3.867-9.929-8.75-10.309a5.911,5.911,0,0,0-4.115-4.014C52.825,33.241,44.049,25,33.5,25S14.18,33.241,12.865,44.048A5.911,5.911,0,0,0,8.75,48.062q-.254.02-.5.054V35.339a1.963,1.963,0,1,0-3.926,0V49.688A10.612,10.612,0,0,0,0,58.372C0,63.824,3.867,68.3,8.75,68.681a5.911,5.911,0,0,0,4.1,4.009,10.354,10.354,0,0,0,10.187,8.584h.454a6.16,6.16,0,0,0,5.828,4.188H37.69a6.151,6.151,0,1,0,0-12.3H29.315a6.16,6.16,0,0,0-5.828,4.188h-.454a6.424,6.424,0,0,1-6.2-4.771,5.9,5.9,0,0,0,3.974-5.568V49.734a5.9,5.9,0,0,0-4-5.576c1.226-8.671,8.264-15.232,16.692-15.232s15.466,6.562,16.692,15.232a5.9,5.9,0,0,0-4,5.576V67.009A5.9,5.9,0,0,0,52.086,72.9h.523a5.9,5.9,0,0,0,5.646-4.217C63.138,68.3,67,63.824,67,58.372ZM29.315,77.086H37.69a2.225,2.225,0,0,1,0,4.45H29.315a2.225,2.225,0,1,1,0-4.45ZM3.926,58.372c0-3.113,2.019-5.793,4.58-6.319V64.691C5.945,64.165,3.926,61.485,3.926,58.372Zm12.956,8.637a1.965,1.965,0,0,1-1.963,1.963H14.4a1.965,1.965,0,0,1-1.963-1.963V49.734A1.965,1.965,0,0,1,14.4,47.771h.523a1.965,1.965,0,0,1,1.963,1.963Zm37.69,0a1.965,1.965,0,0,1-1.963,1.963h-.523a1.965,1.965,0,0,1-1.963-1.963V49.734a1.965,1.965,0,0,1,1.963-1.963h.523a1.965,1.965,0,0,1,1.963,1.963ZM58.5,64.691V52.052c2.562.526,4.58,3.206,4.58,6.319S61.06,64.165,58.5,64.691Z" fill="#666"/>
  </g>
</svg>
