<svg id="Grupo_148" data-name="Grupo 148" xmlns="http://www.w3.org/2000/svg" xmlns:xlink="http://www.w3.org/1999/xlink" width="225" height="54.937" viewBox="0 0 225 54.937">
  <defs>
    <linearGradient id="linear-gradient" x1="-0.068" y1="0.372" x2="1.23" y2="0.782" gradientUnits="objectBoundingBox">
      <stop offset="0" stop-color="#6d6e70"/>
      <stop offset="0.653" stop-color="#b3b9bc"/>
      <stop offset="0.939" stop-color="#b5b8b2"/>
    </linearGradient>
    <linearGradient id="linear-gradient-2" x1="0.129" y1="0.452" x2="1.105" y2="0.866" gradientUnits="objectBoundingBox">
      <stop offset="0" stop-color="#6d6e70"/>
      <stop offset="0.77" stop-color="#b5b8b2"/>
    </linearGradient>
    <linearGradient id="linear-gradient-3" x1="0.057" y1="0.406" x2="0.943" y2="0.594" xlink:href="#linear-gradient-2"/>
  </defs>
  <g id="Grupo_9" data-name="Grupo 9" transform="translate(0)">
    <path id="Trazado_9" data-name="Trazado 9" d="M33.672,89.61a2.827,2.827,0,0,1-2.982-2.634V48.849a2.827,2.827,0,0,1,2.982-2.634H79.923a2.828,2.828,0,0,1,2.984,2.634V86.976a2.828,2.828,0,0,1-2.984,2.634Z" transform="translate(-30.69 -46.215)" fill="#fff"/>
    <path id="Trazado_10" data-name="Trazado 10" d="M82.022,87.084a1.843,1.843,0,0,1-1.992,1.642H33.779a1.841,1.841,0,0,1-1.99-1.642V48.955a1.841,1.841,0,0,1,1.99-1.641H80.03a1.843,1.843,0,0,1,1.992,1.641Z" transform="translate(-30.797 -46.322)" fill="#253e89"/>
    <path id="Trazado_11" data-name="Trazado 11" d="M60.6,83.184H50.308L61.015,54.2H71.3Z" transform="translate(-32.607 -46.996)" fill="#fff"/>
    <path id="Trazado_12" data-name="Trazado 12" d="M73.019,54.2l-5.143,13.92,5.565,15.06H83.728Z" transform="translate(-34.324 -46.996)" fill="url(#linear-gradient)"/>
    <path id="Trazado_13" data-name="Trazado 13" d="M44.1,83.184H33.807L44.517,54.2H54.8Z" transform="translate(-30.995 -46.996)" fill="#fff"/>
    <g id="Grupo_8" data-name="Grupo 8" transform="translate(18.666 7.208)">
      <path id="Trazado_14" data-name="Trazado 14" d="M65.327,76.531h0l0,0Z" transform="translate(-52.741 -56.385)" fill="url(#linear-gradient-2)"/>
      <path id="Trazado_15" data-name="Trazado 15" d="M58.821,60.426l-2.3-6.223-5.144,13.92,2.3,6.224Z" transform="translate(-51.377 -54.203)" fill="url(#linear-gradient-3)"/>
    </g>
  </g>
  <rect id="Rectángulo_8" data-name="Rectángulo 8" width="30.005" height="11.493" transform="translate(156.427 42.072)" fill="#fff"/>
  <g id="Grupo_10" data-name="Grupo 10" transform="translate(55.502 9.529)">
    <path id="Trazado_16" data-name="Trazado 16" d="M114.744,82.288l3.809-17.8-7.688,17.8h-8.037l-.07-17.8-3.81,17.8H92.2l5.488-25.512H108.42L108.384,75.2l7.863-18.419h10.728l-5.486,25.512Z" transform="translate(-92.203 -56.776)" fill="#253e89"/>
    <path id="Trazado_17" data-name="Trazado 17" d="M127.563,82.288l3.947-18.35h6.22l-3.947,18.35Zm4.263-19.9,1.223-5.612h6.221l-1.223,5.612Z" transform="translate(-95.658 -56.776)" fill="#253e89"/>
    <path id="Trazado_18" data-name="Trazado 18" d="M159.874,83.023,162,73.073c.6-2.685-.173-3.822-1.747-3.822-1.328,0-2.935,1.481-3.495,4.2l-2.062,9.57h-6.22l2.131-9.949c.595-2.685-.173-3.822-1.748-3.822-1.326,0-2.933,1.481-3.495,4.2l-2.06,9.57h-6.22l3.948-18.35h5.94l-.594,2.684a6.349,6.349,0,0,1,5.591-3.063c2.762,0,4.473,1.377,5.1,3.546a7.482,7.482,0,0,1,6.291-3.546c3.878,0,6.113,2.959,5.172,7.367l-2.447,11.361Z" transform="translate(-96.589 -57.511)" fill="#253e89"/>
    <path id="Trazado_19" data-name="Trazado 19" d="M182.91,82.666c-2.2,0-4.229-1.377-4.579-2.891l-.525,2.513h-5.94l5.487-25.512h6.221l-1.992,9.192a8.019,8.019,0,0,1,5.452-2.409c4.4,0,7.478,3.683,6.22,9.536C191.995,78.983,187.312,82.666,182.91,82.666Zm1.5-14.15c-1.817,0-3.669,1.411-4.368,4.579-.7,3.2.559,4.613,2.377,4.613s3.633-1.412,4.334-4.613C187.453,69.928,186.229,68.516,184.411,68.516Z" transform="translate(-99.988 -56.776)" fill="#253e89"/>
    <path id="Trazado_20" data-name="Trazado 20" d="M207.389,69.388c-2.272,0-4.019,1.653-4.648,4.579l-1.922,9.055H194.6l3.949-18.35h5.94l-.594,2.788c1.119-1.722,3.32-3.167,7.27-3.167l-1.188,5.473A9.946,9.946,0,0,0,207.389,69.388Z" transform="translate(-102.209 -57.511)" fill="#253e89"/>
    <path id="Trazado_21" data-name="Trazado 21" d="M219.285,83.008l.523-2.549a7.2,7.2,0,0,1-6.08,2.927c-3.844,0-5.905-2.548-5.277-5.474.734-3.442,4.4-5.989,10.345-5.989h2.586c.383-1.756-.8-3.2-2.9-3.2a7.516,7.516,0,0,0-3.878,1.343l-2.691-3.409a15.062,15.062,0,0,1,8.455-2.513c5.732,0,8.215,3.305,7.3,7.505l-2.446,11.361ZM218.1,75.226c-1.817,0-3.04.964-3.285,2.032-.208.894.176,1.927,1.817,1.927,2.1,0,3.6-2,4.054-3.959Z" transform="translate(-103.552 -57.496)" fill="#253e89"/>
    <path id="Trazado_22" data-name="Trazado 22" d="M229.687,82.288l5.486-25.512h6.22l-5.487,25.512Z" transform="translate(-105.638 -56.776)" fill="#253e89"/>
  </g>
  <g id="Grupo_12" data-name="Grupo 12" transform="translate(157.039 42.682)">
    <rect id="Rectángulo_9" data-name="Rectángulo 9" width="28.719" height="7.36" fill="#d8252e"/>
    <path id="Trazado_23" data-name="Trazado 23" d="M212.6,94.419l-1.248,5.622h2.8l.416-3.091,1.23,3.091h1.684l1.268-3.11.417,3.11h2.762l-1.344-5.622h-2.838l-1.117,2.929-1.059-2.929Z" transform="translate(-205.384 -93.608)" fill="#fff"/>
    <path id="Trazado_24" data-name="Trazado 24" d="M222.339,94.419h6v1.854h-1.561v3.768H223.9V96.273h-1.561Z" transform="translate(-206.457 -93.608)" fill="#fff"/>
    <path id="Trazado_25" data-name="Trazado 25" d="M207.374,98.157h-1.935v-1.4h.228V97.9h.593V96.832h.227V97.9h.659V96.715h.228Z" transform="translate(-204.805 -93.832)" fill="#fff"/>
    <path id="Trazado_26" data-name="Trazado 26" d="M236.139,100.965a.072.072,0,0,1-.08.077h-.139v-.153h.139A.073.073,0,0,1,236.139,100.965Zm.072,0a.137.137,0,0,0-.152-.142h-.209v.476h.07v-.189h.107l.094.189h.082l-.1-.194A.132.132,0,0,0,236.211,100.964Z" transform="translate(-207.777 -94.234)" fill="#fff"/>
    <path id="Trazado_27" data-name="Trazado 27" d="M235.967,101.41a.368.368,0,1,1,.368-.368A.368.368,0,0,1,235.967,101.41Zm0-.712a.344.344,0,1,0,.344.344A.343.343,0,0,0,235.967,100.7Z" transform="translate(-207.753 -94.219)" fill="#fff"/>
    <path id="Trazado_28" data-name="Trazado 28" d="M228.94,99.568a16.537,16.537,0,0,0,1.664.383,6.76,6.76,0,0,0,1.655.1,5.27,5.27,0,0,0,1.791-.392,1.857,1.857,0,0,0,1.112-1.005,1.335,1.335,0,0,0-.08-1.358,2.417,2.417,0,0,0-1.2-.711,9.161,9.161,0,0,0-1.536-.263c-.416-.032-.3-.272-.3-.272.015-.288.824-.231.879-.231a4.85,4.85,0,0,1,1.311.423l.792-1.477a6.09,6.09,0,0,0-2.087-.471,5.363,5.363,0,0,0-2.207.3c-1.607.519-1.527,1.749-1.527,1.749a1.263,1.263,0,0,0,.615,1.086,4.5,4.5,0,0,0,1.656.486,1.872,1.872,0,0,1,.727.112c.368.112.1.392.1.392a1.59,1.59,0,0,1-.567.127,3.878,3.878,0,0,1-1.975-.6Z" transform="translate(-207.102 -93.594)" fill="#fff"/>
    <path id="Trazado_29" data-name="Trazado 29" d="M206.293,100.149V99.6a.84.84,0,0,0-.036-.273.29.29,0,0,0-.116-.151.316.316,0,0,0-.173-.051.289.289,0,0,0-.226.1.464.464,0,0,0-.088.314v.612Zm1.08.255h-1.935v-.856a1.129,1.129,0,0,1,.053-.393.427.427,0,0,1,.183-.215.544.544,0,0,1,.292-.08.486.486,0,0,1,.346.133.229.229,0,1,0,.276.257,1.322,1.322,0,0,1,.257-.212l.526-.337v.322l-.4.255c-.115.075-.2.136-.266.185a.592.592,0,0,0-.129.13.349.349,0,0,0-.051.116.749.749,0,0,0-.01.143v.3h.859Z" transform="translate(-204.805 -94.026)" fill="#fff"/>
    <path id="Trazado_30" data-name="Trazado 30" d="M207.146,95.781v-.412a1,1,0,0,0-.036-.3.415.415,0,0,0-.1-.173.6.6,0,0,0-.245-.142,1.189,1.189,0,0,0-.374-.051.892.892,0,0,0-.466.1.5.5,0,0,0-.219.242,1,1,0,0,0-.04.33v.406Zm.227.256h-1.935v-.666a1.586,1.586,0,0,1,.028-.345.658.658,0,0,1,.139-.283.775.775,0,0,1,.331-.227,1.27,1.27,0,0,1,.459-.077,1.342,1.342,0,0,1,.39.051.939.939,0,0,1,.283.132.735.735,0,0,1,.175.176.718.718,0,0,1,.1.231,1.332,1.332,0,0,1,.033.31Z" transform="translate(-204.805 -93.61)" fill="#fff"/>
    <g id="Grupo_11" data-name="Grupo 11" transform="translate(0.634 7.802)">
      <path id="Trazado_31" data-name="Trazado 31" d="M205.439,102.288h1.246v.378H205.9v.466h.732v.374H205.9v.819h-.463Z" transform="translate(-205.439 -102.179)" fill="#3f3233"/>
      <path id="Trazado_32" data-name="Trazado 32" d="M207.446,103.79c.015.191.2.282.418.282a1.288,1.288,0,0,0,.408-.06l.06.311a1.458,1.458,0,0,1-.535.091.71.71,0,0,1-.789-.753.741.741,0,0,1,.747-.789.656.656,0,0,1,.66.737,1.041,1.041,0,0,1-.015.181Zm.541-.314a.267.267,0,0,0-.26-.3.3.3,0,0,0-.284.3Z" transform="translate(-205.592 -102.236)" fill="#3f3233"/>
      <path id="Trazado_33" data-name="Trazado 33" d="M208.87,103.391c0-.217-.006-.36-.013-.486h.4l.015.272h.012a.434.434,0,0,1,.4-.3.525.525,0,0,1,.1.005v.433a.629.629,0,0,0-.124-.013.3.3,0,0,0-.315.233.526.526,0,0,0-.009.1v.75h-.459Z" transform="translate(-205.773 -102.236)" fill="#3f3233"/>
      <path id="Trazado_34" data-name="Trazado 34" d="M210.143,103.391c0-.217-.006-.36-.012-.486h.4l.014.272h.013a.434.434,0,0,1,.4-.3.52.52,0,0,1,.1.005v.433a.621.621,0,0,0-.124-.013.3.3,0,0,0-.315.233.606.606,0,0,0-.009.1v.75h-.459Z" transform="translate(-205.897 -102.236)" fill="#3f3233"/>
      <path id="Trazado_35" data-name="Trazado 35" d="M211.735,103.79c.014.191.2.282.417.282a1.3,1.3,0,0,0,.409-.06l.06.311a1.463,1.463,0,0,1-.536.091.709.709,0,0,1-.789-.753.74.74,0,0,1,.746-.789.656.656,0,0,1,.66.737,1.041,1.041,0,0,1-.015.181Zm.54-.314a.267.267,0,0,0-.26-.3.3.3,0,0,0-.284.3Z" transform="translate(-206.011 -102.236)" fill="#3f3233"/>
      <path id="Trazado_36" data-name="Trazado 36" d="M213.66,102.438v.424h.329v.338h-.329v.535c0,.179.042.26.181.26a.741.741,0,0,0,.136-.012l0,.347a.9.9,0,0,1-.3.04.478.478,0,0,1-.345-.127.612.612,0,0,1-.127-.439v-.6h-.2v-.338h.2v-.321Z" transform="translate(-206.179 -102.193)" fill="#3f3233"/>
      <path id="Trazado_37" data-name="Trazado 37" d="M214.718,103.79c.015.191.2.282.418.282a1.288,1.288,0,0,0,.408-.06l.06.311a1.461,1.461,0,0,1-.535.091.71.71,0,0,1-.789-.753.74.74,0,0,1,.747-.789.656.656,0,0,1,.66.737,1.139,1.139,0,0,1-.015.181Zm.541-.314a.267.267,0,0,0-.26-.3.3.3,0,0,0-.284.3Z" transform="translate(-206.303 -102.236)" fill="#3f3233"/>
      <path id="Trazado_38" data-name="Trazado 38" d="M216.141,103.391c0-.217-.005-.36-.012-.486h.4l.015.272h.012a.434.434,0,0,1,.4-.3.53.53,0,0,1,.1.005v.433a.639.639,0,0,0-.125-.013.3.3,0,0,0-.314.233.526.526,0,0,0-.009.1v.75h-.46Z" transform="translate(-206.484 -102.236)" fill="#3f3233"/>
      <path id="Trazado_39" data-name="Trazado 39" d="M218.841,103.626a.742.742,0,0,1-.78.789.724.724,0,0,1-.765-.762.738.738,0,0,1,.789-.783A.719.719,0,0,1,218.841,103.626Zm-1.071.015c0,.254.106.445.3.445.179,0,.293-.179.293-.445,0-.22-.084-.444-.293-.444S217.77,103.424,217.77,103.642Z" transform="translate(-206.598 -102.236)" fill="#3f3233"/>
      <path id="Trazado_40" data-name="Trazado 40" d="M219.31,103.981a.9.9,0,0,0,.4.112c.139,0,.2-.049.2-.125s-.045-.112-.217-.169c-.306-.1-.423-.27-.42-.445,0-.275.235-.484.6-.484a.978.978,0,0,1,.417.085l-.081.317a.732.732,0,0,0-.32-.084c-.112,0-.176.045-.176.121s.058.106.239.169c.281.1.4.239.4.457,0,.275-.218.478-.642.478a1.047,1.047,0,0,1-.477-.1Z" transform="translate(-206.787 -102.236)" fill="#3f3233"/>
      <path id="Trazado_41" data-name="Trazado 41" d="M222.878,102.167v1.705c0,.166.006.342.013.441h-.409l-.021-.217h-.006a.517.517,0,0,1-.463.251.679.679,0,0,1-.632-.759.7.7,0,0,1,.662-.786.449.449,0,0,1,.39.166h.006v-.8Zm-.459,1.294c0-.024,0-.057-.006-.081a.276.276,0,0,0-.269-.227c-.208,0-.318.188-.318.42,0,.251.124.409.315.409a.271.271,0,0,0,.266-.221.436.436,0,0,0,.012-.106Z" transform="translate(-206.995 -102.167)" fill="#3f3233"/>
      <path id="Trazado_42" data-name="Trazado 42" d="M223.8,103.79c.015.191.2.282.418.282a1.288,1.288,0,0,0,.408-.06l.06.311a1.461,1.461,0,0,1-.535.091.71.71,0,0,1-.789-.753.74.74,0,0,1,.747-.789.655.655,0,0,1,.659.737,1.172,1.172,0,0,1-.014.181Zm.541-.314a.267.267,0,0,0-.26-.3.3.3,0,0,0-.284.3Z" transform="translate(-207.19 -102.236)" fill="#3f3233"/>
      <path id="Trazado_43" data-name="Trazado 43" d="M226.222,102.908l.2.686a3.381,3.381,0,0,1,.085.36h.009c.024-.121.049-.233.081-.36l.191-.686h.484l-.55,1.478h-.459l-.539-1.478Z" transform="translate(-207.421 -102.239)" fill="#3f3233"/>
      <path id="Trazado_44" data-name="Trazado 44" d="M227.968,103.79c.015.191.2.282.418.282a1.288,1.288,0,0,0,.408-.06l.06.311a1.461,1.461,0,0,1-.535.091.71.71,0,0,1-.789-.753.74.74,0,0,1,.747-.789.655.655,0,0,1,.659.737,1.164,1.164,0,0,1-.014.181Zm.541-.314a.267.267,0,0,0-.26-.3.3.3,0,0,0-.284.3Z" transform="translate(-207.598 -102.236)" fill="#3f3233"/>
      <path id="Trazado_45" data-name="Trazado 45" d="M229.391,103.391c0-.217-.005-.36-.012-.486h.4l.015.272h.012a.434.434,0,0,1,.4-.3.529.529,0,0,1,.1.005v.433a.638.638,0,0,0-.124-.013.3.3,0,0,0-.314.233.526.526,0,0,0-.009.1v.75h-.46Z" transform="translate(-207.778 -102.236)" fill="#3f3233"/>
      <path id="Trazado_46" data-name="Trazado 46" d="M232.063,102.167v1.705c0,.166.006.342.013.441h-.409l-.021-.217h-.006a.516.516,0,0,1-.462.251.679.679,0,0,1-.633-.759.7.7,0,0,1,.662-.786.449.449,0,0,1,.39.166h.006v-.8Zm-.459,1.294a.617.617,0,0,0-.006-.081.275.275,0,0,0-.269-.227c-.208,0-.318.188-.318.42,0,.251.125.409.315.409a.27.27,0,0,0,.266-.221.394.394,0,0,0,.012-.106Z" transform="translate(-207.892 -102.167)" fill="#3f3233"/>
      <path id="Trazado_47" data-name="Trazado 47" d="M233.466,104.382l-.027-.148h-.009a.533.533,0,0,1-.423.181.453.453,0,0,1-.478-.454c0-.383.345-.568.868-.565v-.022c0-.078-.042-.19-.269-.19a.832.832,0,0,0-.409.112l-.085-.3a1.219,1.219,0,0,1,.575-.13.575.575,0,0,1,.65.638v.514a2.248,2.248,0,0,0,.022.359Zm-.054-.7c-.243,0-.429.055-.429.233a.165.165,0,0,0,.181.176.252.252,0,0,0,.239-.17.368.368,0,0,0,.009-.079Z" transform="translate(-208.086 -102.236)" fill="#3f3233"/>
      <path id="Trazado_48" data-name="Trazado 48" d="M235.83,102.167v1.705c0,.166.006.342.012.441h-.408l-.021-.217h-.006a.517.517,0,0,1-.463.251.678.678,0,0,1-.632-.759.7.7,0,0,1,.662-.786.45.45,0,0,1,.39.166h.006v-.8Zm-.459,1.294c0-.024,0-.057-.006-.081a.276.276,0,0,0-.269-.227c-.209,0-.318.188-.318.42,0,.251.124.409.314.409a.269.269,0,0,0,.266-.221.393.393,0,0,0,.013-.106Z" transform="translate(-208.261 -102.167)" fill="#3f3233"/>
    </g>
  </g>
  <g id="Grupo_15" data-name="Grupo 15" transform="translate(75.396 39.474)">
    <path id="Trazado_49" data-name="Trazado 49" d="M190.057,104.346H178.851v1.3h.49v1.191h2.241v-1.191h5.742v1.191h2.242v-1.191h.491Z" transform="translate(-120.565 -91.37)" fill="#253e89"/>
    <path id="Trazado_50" data-name="Trazado 50" d="M180.514,94.978v8.208h8.258V94.978Zm1.377,7.671a.712.712,0,1,1,.712-.712A.712.712,0,0,1,181.891,102.649Zm5.416,0a.712.712,0,1,1,.712-.712A.713.713,0,0,1,187.307,102.649Zm1.224-4.067h-7.779V95.216h7.779Z" transform="translate(-120.727 -90.455)" fill="#253e89"/>
    <path id="Trazado_51" data-name="Trazado 51" d="M178.88,91.811v11.065h1V94.192h9.209v8.684h1V91.811Z" transform="translate(-120.568 -90.145)" fill="#253e89"/>
    <g id="Grupo_13" data-name="Grupo 13" transform="translate(0 1.91)">
      <path id="Trazado_52" data-name="Trazado 52" d="M117.576,97.219a1.662,1.662,0,1,0-1.662,1.662A1.662,1.662,0,0,0,117.576,97.219Z" transform="translate(-114.252 -92.421)" fill="#253e89"/>
      <path id="Trazado_53" data-name="Trazado 53" d="M124.793,95.556a1.662,1.662,0,1,0,1.662,1.663A1.663,1.663,0,0,0,124.793,95.556Z" transform="translate(-115.12 -92.421)" fill="#253e89"/>
      <path id="Trazado_54" data-name="Trazado 54" d="M120.265,103.417a1.662,1.662,0,1,0,1.663,1.663A1.662,1.662,0,0,0,120.265,103.417Z" transform="translate(-114.677 -93.19)" fill="#253e89"/>
      <path id="Trazado_55" data-name="Trazado 55" d="M119.753,101.254a1.662,1.662,0,1,0-1.663,1.663A1.663,1.663,0,0,0,119.753,101.254Z" transform="translate(-114.465 -92.816)" fill="#253e89"/>
      <path id="Trazado_56" data-name="Trazado 56" d="M122.442,99.592a1.662,1.662,0,1,0,1.661,1.662A1.663,1.663,0,0,0,122.442,99.592Z" transform="translate(-114.89 -92.816)" fill="#253e89"/>
      <path id="Trazado_57" data-name="Trazado 57" d="M119.878,95.234a1.661,1.661,0,1,0,.6.029V92.874h2.977v-.792H116.9v.792h2.977Z" transform="translate(-114.511 -92.082)" fill="#253e89"/>
    </g>
    <g id="Grupo_14" data-name="Grupo 14" transform="translate(40.234)">
      <path id="Trazado_58" data-name="Trazado 58" d="M158.972,102.98s-1.072,3.292,2.969,3.042C161.941,106.023,162.714,102.556,158.972,102.98Z" transform="translate(-158.843 -91.233)" fill="#253e89"/>
      <path id="Trazado_59" data-name="Trazado 59" d="M159.115,98.887s-1.027,3.153,2.843,2.913C161.958,101.8,162.7,98.481,159.115,98.887Z" transform="translate(-158.858 -90.833)" fill="#253e89"/>
      <path id="Trazado_60" data-name="Trazado 60" d="M162.023,97.672a1.926,1.926,0,0,0-2.376-2.433S158.789,97.873,162.023,97.672Z" transform="translate(-158.912 -90.477)" fill="#253e89"/>
      <path id="Trazado_61" data-name="Trazado 61" d="M166.987,102.98c-3.74-.424-2.968,3.042-2.968,3.042C168.06,106.272,166.987,102.98,166.987,102.98Z" transform="translate(-159.343 -91.233)" fill="#253e89"/>
      <path id="Trazado_62" data-name="Trazado 62" d="M166.861,98.887c-3.585-.406-2.843,2.913-2.843,2.913C167.887,102.041,166.861,98.887,166.861,98.887Z" transform="translate(-159.343 -90.833)" fill="#253e89"/>
      <path id="Trazado_63" data-name="Trazado 63" d="M166.382,95.239a1.926,1.926,0,0,0-2.375,2.433C167.239,97.873,166.382,95.239,166.382,95.239Z" transform="translate(-159.343 -90.477)" fill="#253e89"/>
      <rect id="Rectángulo_10" data-name="Rectángulo 10" width="0.474" height="9.352" transform="translate(3.651 6.11)" fill="#253e89"/>
      <rect id="Rectángulo_11" data-name="Rectángulo 11" width="0.269" height="2.917" transform="translate(2.803 0.973)" fill="#253e89"/>
      <rect id="Rectángulo_12" data-name="Rectángulo 12" width="0.27" height="2.917" transform="translate(4.702 0.973)" fill="#253e89"/>
      <rect id="Rectángulo_13" data-name="Rectángulo 13" width="0.27" height="3.89" transform="translate(3.738)" fill="#253e89"/>
    </g>
    <path id="Trazado_64" data-name="Trazado 64" d="M148.259,97.937l-2.873-3.914v-2.1h-2.772v1.269h-5.8l-3.482,4.744h1.6v7.682h4.51v-3.507h2.706v3.507h4.51V97.937Z" transform="translate(-116.116 -90.156)" fill="#253e89"/>
  </g>
  <path id="Trazado_65" data-name="Trazado 65" d="M242.865,84.935a3.5,3.5,0,1,1,3.5-3.5A3.5,3.5,0,0,1,242.865,84.935Z" transform="translate(-51.082 -49.315)" fill="#fff"/>
  <path id="Trazado_66" data-name="Trazado 66" d="M245.83,81.5a2.9,2.9,0,1,1-2.9-2.9A2.9,2.9,0,0,1,245.83,81.5Z" transform="translate(-51.147 -49.38)" fill="#d8252e"/>
  <path id="Trazado_67" data-name="Trazado 67" d="M256.6,83.925a9.888,9.888,0,0,1-3.813-.716,7.693,7.693,0,0,1-2.905-2.07,7.491,7.491,0,0,1-1.608-3.265,9.727,9.727,0,0,1,.066-4.233,11.7,11.7,0,0,1,1.682-4.157,13.1,13.1,0,0,1,2.865-3.134,12.809,12.809,0,0,1,3.651-2,12.223,12.223,0,0,1,4.07-.7,9.106,9.106,0,0,1,6.651,2.528l.5.457-5.341,4.522-.383-.49a2.214,2.214,0,0,0-.807-.621,2.941,2.941,0,0,0-1.269-.251,3.242,3.242,0,0,0-1.277.279,4.463,4.463,0,0,0-1.243.8,5.261,5.261,0,0,0-1.02,1.3,5.615,5.615,0,0,0-.63,1.711,5.28,5.28,0,0,0-.078,1.71,2.794,2.794,0,0,0,.429,1.193,2.191,2.191,0,0,0,1.883.993,3.918,3.918,0,0,0,1.445-.268,4.347,4.347,0,0,0,1.2-.695l.475-.4,3.587,4.64-.527.355a15.719,15.719,0,0,1-3.691,1.893A12.09,12.09,0,0,1,256.6,83.925Z" transform="translate(-51.933 -47.918)" fill="#fff"/>
  <path id="Trazado_68" data-name="Trazado 68" d="M260.384,82.808a11.462,11.462,0,0,1-3.719.585,9.26,9.26,0,0,1-3.584-.67,7.058,7.058,0,0,1-2.682-1.909,6.853,6.853,0,0,1-1.478-3.008,9.076,9.076,0,0,1,.068-3.973,11.079,11.079,0,0,1,1.6-3.956,12.462,12.462,0,0,1,2.735-2.992,12.148,12.148,0,0,1,3.482-1.909,11.569,11.569,0,0,1,3.872-.67,8.508,8.508,0,0,1,6.249,2.373l-4.347,3.68a2.788,2.788,0,0,0-1.019-.791,3.513,3.513,0,0,0-1.528-.309,3.808,3.808,0,0,0-1.511.327,5.027,5.027,0,0,0-1.409.911,5.834,5.834,0,0,0-1.139,1.445,6.2,6.2,0,0,0-.7,1.892,5.873,5.873,0,0,0-.085,1.909,3.381,3.381,0,0,0,.527,1.444,2.786,2.786,0,0,0,2.377,1.256,4.486,4.486,0,0,0,1.665-.309,4.955,4.955,0,0,0,1.36-.792l2.819,3.646A15.1,15.1,0,0,1,260.384,82.808Z" transform="translate(-51.998 -47.983)" fill="#d8252e"/>
  <path id="Trazado_69" data-name="Trazado 69" d="M265.82,82.813,271.4,56.134h7.265l-5.583,26.679Z" transform="translate(-53.667 -47.184)" fill="#fff"/>
  <path id="Trazado_70" data-name="Trazado 70" d="M266.634,82.281,271.966,56.8h6.046l-5.333,25.486Z" transform="translate(-53.747 -47.249)" fill="#d8252e"/>
</svg>
